<mxfile host="app.diagrams.net" modified="2023-10-22T09:54:34.284Z" agent="Mozilla/5.0 (Windows NT 10.0; Win64; x64) AppleWebKit/537.36 (KHTML, like Gecko) Chrome/118.0.0.0 Safari/537.36 Edg/118.0.2088.57" etag="B3KUJl7nHQg1ZlEBUEGy" version="22.0.6" type="device">
  <diagram id="C5RBs43oDa-KdzZeNtuy" name="Page-1">
    <mxGraphModel dx="2893" dy="2280" grid="1" gridSize="10" guides="1" tooltips="1" connect="1" arrows="1" fold="1" page="1" pageScale="1" pageWidth="827" pageHeight="1169" math="0" shadow="0">
      <root>
        <mxCell id="WIyWlLk6GJQsqaUBKTNV-0" />
        <mxCell id="WIyWlLk6GJQsqaUBKTNV-1" parent="WIyWlLk6GJQsqaUBKTNV-0" />
        <mxCell id="_qA5Wu07PFHlYsE_viQs-86" value="" style="rounded=1;whiteSpace=wrap;html=1;arcSize=1;imageHeight=24;strokeColor=default;dashed=1;" parent="WIyWlLk6GJQsqaUBKTNV-1" vertex="1">
          <mxGeometry x="-640" y="-510" width="1390" height="1290" as="geometry" />
        </mxCell>
        <mxCell id="_qA5Wu07PFHlYsE_viQs-80" value="" style="rounded=1;whiteSpace=wrap;html=1;strokeWidth=0;fillColor=#e1d5e7;strokeColor=#9673a6;arcSize=1;glass=0;" parent="WIyWlLk6GJQsqaUBKTNV-1" vertex="1">
          <mxGeometry x="-40" y="110" width="710" height="590" as="geometry" />
        </mxCell>
        <mxCell id="_qA5Wu07PFHlYsE_viQs-79" value="" style="rounded=1;whiteSpace=wrap;html=1;strokeWidth=0;fillColor=#d5e8d4;strokeColor=#82b366;arcSize=1;glass=0;" parent="WIyWlLk6GJQsqaUBKTNV-1" vertex="1">
          <mxGeometry x="-560" y="30" width="510" height="670" as="geometry" />
        </mxCell>
        <mxCell id="_qA5Wu07PFHlYsE_viQs-13" style="edgeStyle=orthogonalEdgeStyle;rounded=0;orthogonalLoop=1;jettySize=auto;html=1;entryX=0.5;entryY=0;entryDx=0;entryDy=0;" parent="WIyWlLk6GJQsqaUBKTNV-1" source="_qA5Wu07PFHlYsE_viQs-17" target="_qA5Wu07PFHlYsE_viQs-23" edge="1">
          <mxGeometry relative="1" as="geometry" />
        </mxCell>
        <mxCell id="_qA5Wu07PFHlYsE_viQs-14" value="&quot;Friends&quot;" style="edgeLabel;html=1;align=center;verticalAlign=middle;resizable=0;points=[];" parent="_qA5Wu07PFHlYsE_viQs-13" vertex="1" connectable="0">
          <mxGeometry x="-0.05" y="-1" relative="1" as="geometry">
            <mxPoint as="offset" />
          </mxGeometry>
        </mxCell>
        <mxCell id="_qA5Wu07PFHlYsE_viQs-15" style="edgeStyle=orthogonalEdgeStyle;rounded=0;orthogonalLoop=1;jettySize=auto;html=1;entryX=0.5;entryY=0;entryDx=0;entryDy=0;jumpStyle=arc;" parent="WIyWlLk6GJQsqaUBKTNV-1" source="_qA5Wu07PFHlYsE_viQs-17" target="_qA5Wu07PFHlYsE_viQs-28" edge="1">
          <mxGeometry relative="1" as="geometry" />
        </mxCell>
        <mxCell id="_qA5Wu07PFHlYsE_viQs-16" value="&quot;Strangers&quot;" style="edgeLabel;html=1;align=center;verticalAlign=middle;resizable=0;points=[];" parent="_qA5Wu07PFHlYsE_viQs-15" vertex="1" connectable="0">
          <mxGeometry x="-0.0245" y="1" relative="1" as="geometry">
            <mxPoint as="offset" />
          </mxGeometry>
        </mxCell>
        <mxCell id="_qA5Wu07PFHlYsE_viQs-17" value="Meet and talk with?" style="shape=process;whiteSpace=wrap;html=1;backgroundOutline=1;rounded=0;" parent="WIyWlLk6GJQsqaUBKTNV-1" vertex="1">
          <mxGeometry x="195" y="-30" width="150" height="60" as="geometry" />
        </mxCell>
        <mxCell id="_qA5Wu07PFHlYsE_viQs-20" style="edgeStyle=orthogonalEdgeStyle;rounded=0;orthogonalLoop=1;jettySize=auto;html=1;entryX=0;entryY=0.5;entryDx=0;entryDy=0;" parent="WIyWlLk6GJQsqaUBKTNV-1" source="_qA5Wu07PFHlYsE_viQs-23" target="_qA5Wu07PFHlYsE_viQs-46" edge="1">
          <mxGeometry relative="1" as="geometry" />
        </mxCell>
        <mxCell id="_qA5Wu07PFHlYsE_viQs-21" value="&quot;Create a room&quot;" style="edgeLabel;html=1;align=center;verticalAlign=middle;resizable=0;points=[];labelBackgroundColor=#dfd5e6;" parent="_qA5Wu07PFHlYsE_viQs-20" vertex="1" connectable="0">
          <mxGeometry x="0.1526" y="-2" relative="1" as="geometry">
            <mxPoint y="-130" as="offset" />
          </mxGeometry>
        </mxCell>
        <mxCell id="_qA5Wu07PFHlYsE_viQs-23" value="FriendHub" style="rounded=1;whiteSpace=wrap;html=1;fillColor=#fff2cc;strokeColor=#d6b656;" parent="WIyWlLk6GJQsqaUBKTNV-1" vertex="1">
          <mxGeometry x="210" y="130" width="120" height="60" as="geometry" />
        </mxCell>
        <mxCell id="_qA5Wu07PFHlYsE_viQs-24" style="edgeStyle=orthogonalEdgeStyle;rounded=0;orthogonalLoop=1;jettySize=auto;html=1;entryX=0.5;entryY=0;entryDx=0;entryDy=0;" parent="WIyWlLk6GJQsqaUBKTNV-1" source="_qA5Wu07PFHlYsE_viQs-26" target="_qA5Wu07PFHlYsE_viQs-17" edge="1">
          <mxGeometry relative="1" as="geometry" />
        </mxCell>
        <mxCell id="_qA5Wu07PFHlYsE_viQs-25" value="Appear automatically" style="edgeLabel;html=1;align=center;verticalAlign=middle;resizable=0;points=[];" parent="_qA5Wu07PFHlYsE_viQs-24" vertex="1" connectable="0">
          <mxGeometry x="-0.1111" relative="1" as="geometry">
            <mxPoint as="offset" />
          </mxGeometry>
        </mxCell>
        <mxCell id="_qA5Wu07PFHlYsE_viQs-26" value="Homepage" style="rounded=1;whiteSpace=wrap;html=1;fillColor=#fff2cc;strokeColor=#d6b656;" parent="WIyWlLk6GJQsqaUBKTNV-1" vertex="1">
          <mxGeometry x="210" y="-231" width="120" height="60" as="geometry" />
        </mxCell>
        <mxCell id="_qA5Wu07PFHlYsE_viQs-27" style="edgeStyle=orthogonalEdgeStyle;rounded=0;orthogonalLoop=1;jettySize=auto;html=1;entryX=0.5;entryY=0;entryDx=0;entryDy=0;" parent="WIyWlLk6GJQsqaUBKTNV-1" source="_qA5Wu07PFHlYsE_viQs-28" target="_qA5Wu07PFHlYsE_viQs-56" edge="1">
          <mxGeometry relative="1" as="geometry" />
        </mxCell>
        <mxCell id="_qA5Wu07PFHlYsE_viQs-73" value="Input finder settings" style="edgeLabel;html=1;align=center;verticalAlign=middle;resizable=0;points=[];labelBackgroundColor=#d9e7d5;" parent="_qA5Wu07PFHlYsE_viQs-27" vertex="1" connectable="0">
          <mxGeometry x="-0.0231" y="-1" relative="1" as="geometry">
            <mxPoint as="offset" />
          </mxGeometry>
        </mxCell>
        <mxCell id="_qA5Wu07PFHlYsE_viQs-28" value="StrangerHub" style="rounded=1;whiteSpace=wrap;html=1;fillColor=#fff2cc;strokeColor=#d6b656;" parent="WIyWlLk6GJQsqaUBKTNV-1" vertex="1">
          <mxGeometry x="-533" y="50" width="120" height="60" as="geometry" />
        </mxCell>
        <mxCell id="_qA5Wu07PFHlYsE_viQs-29" style="edgeStyle=orthogonalEdgeStyle;rounded=0;orthogonalLoop=1;jettySize=auto;html=1;entryX=0;entryY=0.5;entryDx=0;entryDy=0;" parent="WIyWlLk6GJQsqaUBKTNV-1" source="_qA5Wu07PFHlYsE_viQs-31" target="_qA5Wu07PFHlYsE_viQs-41" edge="1">
          <mxGeometry relative="1" as="geometry" />
        </mxCell>
        <mxCell id="_qA5Wu07PFHlYsE_viQs-30" value="Input room ID or room URL" style="edgeLabel;html=1;align=center;verticalAlign=middle;resizable=0;points=[];labelBackgroundColor=#dfd5e6;" parent="_qA5Wu07PFHlYsE_viQs-29" vertex="1" connectable="0">
          <mxGeometry x="-0.3033" y="1" relative="1" as="geometry">
            <mxPoint y="-9" as="offset" />
          </mxGeometry>
        </mxCell>
        <mxCell id="_qA5Wu07PFHlYsE_viQs-31" value="Join friend&#39;s room" style="shape=process;whiteSpace=wrap;html=1;backgroundOutline=1;" parent="WIyWlLk6GJQsqaUBKTNV-1" vertex="1">
          <mxGeometry x="340" y="260" width="130" height="60" as="geometry" />
        </mxCell>
        <mxCell id="_qA5Wu07PFHlYsE_viQs-32" style="edgeStyle=orthogonalEdgeStyle;rounded=0;orthogonalLoop=1;jettySize=auto;html=1;entryX=0.5;entryY=0;entryDx=0;entryDy=0;fillColor=#f8cecc;strokeColor=#0000FF;fontColor=#0000FF;" parent="WIyWlLk6GJQsqaUBKTNV-1" source="_qA5Wu07PFHlYsE_viQs-38" target="_qA5Wu07PFHlYsE_viQs-26" edge="1">
          <mxGeometry relative="1" as="geometry" />
        </mxCell>
        <mxCell id="_qA5Wu07PFHlYsE_viQs-33" value="Access URL" style="edgeLabel;html=1;align=center;verticalAlign=middle;resizable=0;points=[];fontColor=#0000FF;" parent="_qA5Wu07PFHlYsE_viQs-32" vertex="1" connectable="0">
          <mxGeometry x="0.4679" y="-1" relative="1" as="geometry">
            <mxPoint y="1" as="offset" />
          </mxGeometry>
        </mxCell>
        <mxCell id="_qA5Wu07PFHlYsE_viQs-34" style="edgeStyle=orthogonalEdgeStyle;rounded=0;orthogonalLoop=1;jettySize=auto;html=1;entryX=0;entryY=0.5;entryDx=0;entryDy=0;fillColor=#f8cecc;strokeColor=#0000FF;fontColor=#0000FF;" parent="WIyWlLk6GJQsqaUBKTNV-1" source="_qA5Wu07PFHlYsE_viQs-38" target="_qA5Wu07PFHlYsE_viQs-23" edge="1">
          <mxGeometry relative="1" as="geometry">
            <Array as="points">
              <mxPoint x="20" y="160" />
            </Array>
          </mxGeometry>
        </mxCell>
        <mxCell id="_qA5Wu07PFHlYsE_viQs-35" value="Access URL" style="edgeLabel;html=1;align=center;verticalAlign=middle;resizable=0;points=[];fontColor=#0000FF;labelBackgroundColor=#dfd5e6;" parent="_qA5Wu07PFHlYsE_viQs-34" vertex="1" connectable="0">
          <mxGeometry x="0.6131" relative="1" as="geometry">
            <mxPoint as="offset" />
          </mxGeometry>
        </mxCell>
        <mxCell id="_qA5Wu07PFHlYsE_viQs-36" style="edgeStyle=orthogonalEdgeStyle;rounded=0;orthogonalLoop=1;jettySize=auto;html=1;entryX=0;entryY=0.5;entryDx=0;entryDy=0;jumpStyle=arc;fillColor=#f8cecc;strokeColor=#0000FF;fontColor=#0000FF;" parent="WIyWlLk6GJQsqaUBKTNV-1" source="_qA5Wu07PFHlYsE_viQs-38" target="_qA5Wu07PFHlYsE_viQs-52" edge="1">
          <mxGeometry relative="1" as="geometry" />
        </mxCell>
        <mxCell id="_qA5Wu07PFHlYsE_viQs-37" value="Access room URL" style="edgeLabel;html=1;align=center;verticalAlign=middle;resizable=0;points=[];fontColor=#0000FF;labelBackgroundColor=#dfd5e6;" parent="_qA5Wu07PFHlYsE_viQs-36" vertex="1" connectable="0">
          <mxGeometry x="0.5356" relative="1" as="geometry">
            <mxPoint y="-1" as="offset" />
          </mxGeometry>
        </mxCell>
        <mxCell id="_qA5Wu07PFHlYsE_viQs-74" style="edgeStyle=orthogonalEdgeStyle;rounded=0;orthogonalLoop=1;jettySize=auto;html=1;entryX=0.5;entryY=0;entryDx=0;entryDy=0;fontColor=#0000FF;strokeColor=#0000FF;" parent="WIyWlLk6GJQsqaUBKTNV-1" source="_qA5Wu07PFHlYsE_viQs-38" target="_qA5Wu07PFHlYsE_viQs-28" edge="1">
          <mxGeometry relative="1" as="geometry" />
        </mxCell>
        <mxCell id="_qA5Wu07PFHlYsE_viQs-76" value="Access URL" style="edgeLabel;html=1;align=center;verticalAlign=middle;resizable=0;points=[];fontColor=#0000FF;" parent="_qA5Wu07PFHlYsE_viQs-74" vertex="1" connectable="0">
          <mxGeometry x="0.1859" relative="1" as="geometry">
            <mxPoint y="94" as="offset" />
          </mxGeometry>
        </mxCell>
        <mxCell id="_qA5Wu07PFHlYsE_viQs-38" value="Begin" style="ellipse;whiteSpace=wrap;html=1;fillColor=#f8cecc;strokeColor=#b85450;" parent="WIyWlLk6GJQsqaUBKTNV-1" vertex="1">
          <mxGeometry x="-40" y="-410" width="120" height="80" as="geometry" />
        </mxCell>
        <mxCell id="_qA5Wu07PFHlYsE_viQs-39" style="edgeStyle=orthogonalEdgeStyle;rounded=0;orthogonalLoop=1;jettySize=auto;html=1;entryX=1;entryY=0.5;entryDx=0;entryDy=0;fillColor=#f8cecc;strokeColor=#b85450;" parent="WIyWlLk6GJQsqaUBKTNV-1" source="_qA5Wu07PFHlYsE_viQs-41" target="_qA5Wu07PFHlYsE_viQs-26" edge="1">
          <mxGeometry relative="1" as="geometry">
            <Array as="points">
              <mxPoint x="640" y="410" />
              <mxPoint x="640" y="-200" />
              <mxPoint x="330" y="-200" />
            </Array>
          </mxGeometry>
        </mxCell>
        <mxCell id="_qA5Wu07PFHlYsE_viQs-40" value="&quot;Leave&quot;" style="edgeLabel;html=1;align=center;verticalAlign=middle;resizable=0;points=[];labelBackgroundColor=#dfd5e6;fontColor=#ab5a53;" parent="_qA5Wu07PFHlYsE_viQs-39" vertex="1" connectable="0">
          <mxGeometry x="-0.9139" relative="1" as="geometry">
            <mxPoint x="-5" as="offset" />
          </mxGeometry>
        </mxCell>
        <mxCell id="_qA5Wu07PFHlYsE_viQs-41" value="Friend&#39;s room" style="rounded=1;whiteSpace=wrap;html=1;fillColor=#fff2cc;strokeColor=#d6b656;" parent="WIyWlLk6GJQsqaUBKTNV-1" vertex="1">
          <mxGeometry x="443" y="380" width="120" height="60" as="geometry" />
        </mxCell>
        <mxCell id="_qA5Wu07PFHlYsE_viQs-42" style="edgeStyle=orthogonalEdgeStyle;rounded=0;orthogonalLoop=1;jettySize=auto;html=1;entryX=1;entryY=0.5;entryDx=0;entryDy=0;fillColor=#f8cecc;strokeColor=#b85450;" parent="WIyWlLk6GJQsqaUBKTNV-1" source="_qA5Wu07PFHlYsE_viQs-46" target="_qA5Wu07PFHlYsE_viQs-26" edge="1">
          <mxGeometry relative="1" as="geometry">
            <Array as="points">
              <mxPoint x="640" y="520" />
              <mxPoint x="640" y="-200" />
              <mxPoint x="330" y="-200" />
            </Array>
          </mxGeometry>
        </mxCell>
        <mxCell id="_qA5Wu07PFHlYsE_viQs-43" value="&quot;Cancel Meeting&quot;" style="edgeLabel;html=1;align=center;verticalAlign=middle;resizable=0;points=[];labelBackgroundColor=#dfd5e6;fontColor=#ab5a53;" parent="_qA5Wu07PFHlYsE_viQs-42" vertex="1" connectable="0">
          <mxGeometry x="-0.874" relative="1" as="geometry">
            <mxPoint x="11" as="offset" />
          </mxGeometry>
        </mxCell>
        <mxCell id="_qA5Wu07PFHlYsE_viQs-44" style="edgeStyle=orthogonalEdgeStyle;rounded=0;orthogonalLoop=1;jettySize=auto;html=1;entryX=0.5;entryY=0;entryDx=0;entryDy=0;" parent="WIyWlLk6GJQsqaUBKTNV-1" source="_qA5Wu07PFHlYsE_viQs-46" target="_qA5Wu07PFHlYsE_viQs-47" edge="1">
          <mxGeometry relative="1" as="geometry" />
        </mxCell>
        <mxCell id="_qA5Wu07PFHlYsE_viQs-45" value="Appear automatically" style="edgeLabel;html=1;align=center;verticalAlign=middle;resizable=0;points=[];labelBackgroundColor=#dfd5e6;" parent="_qA5Wu07PFHlYsE_viQs-44" vertex="1" connectable="0">
          <mxGeometry x="-0.0412" y="1" relative="1" as="geometry">
            <mxPoint as="offset" />
          </mxGeometry>
        </mxCell>
        <mxCell id="_qA5Wu07PFHlYsE_viQs-46" value="Your room" style="rounded=1;whiteSpace=wrap;html=1;fillColor=#fff2cc;strokeColor=#d6b656;" parent="WIyWlLk6GJQsqaUBKTNV-1" vertex="1">
          <mxGeometry x="320" y="490" width="120" height="60" as="geometry" />
        </mxCell>
        <mxCell id="_qA5Wu07PFHlYsE_viQs-47" value="Room&#39;s Security Configuration" style="shape=process;whiteSpace=wrap;html=1;backgroundOutline=1;" parent="WIyWlLk6GJQsqaUBKTNV-1" vertex="1">
          <mxGeometry x="305" y="611" width="150" height="60" as="geometry" />
        </mxCell>
        <mxCell id="_qA5Wu07PFHlYsE_viQs-48" style="edgeStyle=orthogonalEdgeStyle;rounded=0;orthogonalLoop=1;jettySize=auto;html=1;entryX=0;entryY=0.5;entryDx=0;entryDy=0;jumpStyle=arc;" parent="WIyWlLk6GJQsqaUBKTNV-1" source="_qA5Wu07PFHlYsE_viQs-52" target="_qA5Wu07PFHlYsE_viQs-41" edge="1">
          <mxGeometry relative="1" as="geometry" />
        </mxCell>
        <mxCell id="_qA5Wu07PFHlYsE_viQs-49" value="Accepted" style="edgeLabel;html=1;align=center;verticalAlign=middle;resizable=0;points=[];labelBackgroundColor=#dfd5e6;" parent="_qA5Wu07PFHlYsE_viQs-48" vertex="1" connectable="0">
          <mxGeometry x="-0.0398" y="2" relative="1" as="geometry">
            <mxPoint as="offset" />
          </mxGeometry>
        </mxCell>
        <mxCell id="_qA5Wu07PFHlYsE_viQs-50" style="edgeStyle=orthogonalEdgeStyle;rounded=0;orthogonalLoop=1;jettySize=auto;html=1;entryX=0;entryY=0.5;entryDx=0;entryDy=0;" parent="WIyWlLk6GJQsqaUBKTNV-1" source="_qA5Wu07PFHlYsE_viQs-52" target="_qA5Wu07PFHlYsE_viQs-23" edge="1">
          <mxGeometry relative="1" as="geometry" />
        </mxCell>
        <mxCell id="_qA5Wu07PFHlYsE_viQs-51" value="Declined" style="edgeLabel;html=1;align=center;verticalAlign=middle;resizable=0;points=[];labelBackgroundColor=#dfd5e6;" parent="_qA5Wu07PFHlYsE_viQs-50" vertex="1" connectable="0">
          <mxGeometry x="-0.2907" y="1" relative="1" as="geometry">
            <mxPoint as="offset" />
          </mxGeometry>
        </mxCell>
        <mxCell id="_qA5Wu07PFHlYsE_viQs-52" value="Accept Validation" style="shape=process;whiteSpace=wrap;html=1;backgroundOutline=1;" parent="WIyWlLk6GJQsqaUBKTNV-1" vertex="1">
          <mxGeometry x="70" y="380" width="150" height="60" as="geometry" />
        </mxCell>
        <mxCell id="_qA5Wu07PFHlYsE_viQs-53" style="edgeStyle=orthogonalEdgeStyle;rounded=0;orthogonalLoop=1;jettySize=auto;html=1;entryX=0;entryY=0.5;entryDx=0;entryDy=0;" parent="WIyWlLk6GJQsqaUBKTNV-1" source="_qA5Wu07PFHlYsE_viQs-56" target="_qA5Wu07PFHlYsE_viQs-61" edge="1">
          <mxGeometry relative="1" as="geometry">
            <Array as="points">
              <mxPoint x="-473" y="410" />
            </Array>
          </mxGeometry>
        </mxCell>
        <mxCell id="_qA5Wu07PFHlYsE_viQs-54" style="edgeStyle=orthogonalEdgeStyle;rounded=0;orthogonalLoop=1;jettySize=auto;html=1;entryX=0.5;entryY=0;entryDx=0;entryDy=0;" parent="WIyWlLk6GJQsqaUBKTNV-1" source="_qA5Wu07PFHlYsE_viQs-56" target="_qA5Wu07PFHlYsE_viQs-67" edge="1">
          <mxGeometry relative="1" as="geometry" />
        </mxCell>
        <mxCell id="_qA5Wu07PFHlYsE_viQs-55" value="Matched" style="edgeLabel;html=1;align=center;verticalAlign=middle;resizable=0;points=[];labelBackgroundColor=#d9e7d5;" parent="_qA5Wu07PFHlYsE_viQs-54" vertex="1" connectable="0">
          <mxGeometry x="0.3875" y="-1" relative="1" as="geometry">
            <mxPoint as="offset" />
          </mxGeometry>
        </mxCell>
        <mxCell id="_qA5Wu07PFHlYsE_viQs-77" value="Start pairing" style="edgeLabel;html=1;align=center;verticalAlign=middle;resizable=0;points=[];labelBackgroundColor=#d9e7d5;" parent="_qA5Wu07PFHlYsE_viQs-54" vertex="1" connectable="0">
          <mxGeometry x="-0.653" relative="1" as="geometry">
            <mxPoint as="offset" />
          </mxGeometry>
        </mxCell>
        <mxCell id="_qA5Wu07PFHlYsE_viQs-56" value="Waiting Screen" style="rounded=1;whiteSpace=wrap;html=1;fillColor=#fff2cc;strokeColor=#d6b656;" parent="WIyWlLk6GJQsqaUBKTNV-1" vertex="1">
          <mxGeometry x="-533" y="230" width="120" height="60" as="geometry" />
        </mxCell>
        <mxCell id="_qA5Wu07PFHlYsE_viQs-57" style="edgeStyle=orthogonalEdgeStyle;rounded=0;orthogonalLoop=1;jettySize=auto;html=1;entryX=1;entryY=0.5;entryDx=0;entryDy=0;" parent="WIyWlLk6GJQsqaUBKTNV-1" source="_qA5Wu07PFHlYsE_viQs-61" target="_qA5Wu07PFHlYsE_viQs-56" edge="1">
          <mxGeometry relative="1" as="geometry">
            <Array as="points">
              <mxPoint x="-330" y="260" />
            </Array>
          </mxGeometry>
        </mxCell>
        <mxCell id="_qA5Wu07PFHlYsE_viQs-58" value="&quot;Keep on waiting&quot;" style="edgeLabel;html=1;align=center;verticalAlign=middle;resizable=0;points=[];labelBackgroundColor=#d9e7d5;" parent="_qA5Wu07PFHlYsE_viQs-57" vertex="1" connectable="0">
          <mxGeometry x="-0.4315" relative="1" as="geometry">
            <mxPoint as="offset" />
          </mxGeometry>
        </mxCell>
        <mxCell id="_qA5Wu07PFHlYsE_viQs-59" style="edgeStyle=orthogonalEdgeStyle;rounded=0;orthogonalLoop=1;jettySize=auto;html=1;entryX=0.5;entryY=0;entryDx=0;entryDy=0;" parent="WIyWlLk6GJQsqaUBKTNV-1" source="_qA5Wu07PFHlYsE_viQs-61" target="_qA5Wu07PFHlYsE_viQs-64" edge="1">
          <mxGeometry relative="1" as="geometry" />
        </mxCell>
        <mxCell id="_qA5Wu07PFHlYsE_viQs-60" value="&quot;Change finder settings&quot;" style="edgeLabel;html=1;align=center;verticalAlign=middle;resizable=0;points=[];labelBackgroundColor=#d9e7d5;" parent="_qA5Wu07PFHlYsE_viQs-59" vertex="1" connectable="0">
          <mxGeometry x="-0.1079" relative="1" as="geometry">
            <mxPoint as="offset" />
          </mxGeometry>
        </mxCell>
        <mxCell id="_qA5Wu07PFHlYsE_viQs-61" value="No one matches" style="rounded=1;whiteSpace=wrap;html=1;fillColor=#fff2cc;strokeColor=#d6b656;" parent="WIyWlLk6GJQsqaUBKTNV-1" vertex="1">
          <mxGeometry x="-390" y="380" width="120" height="60" as="geometry" />
        </mxCell>
        <mxCell id="_qA5Wu07PFHlYsE_viQs-62" style="edgeStyle=orthogonalEdgeStyle;rounded=0;orthogonalLoop=1;jettySize=auto;html=1;entryX=1;entryY=0.5;entryDx=0;entryDy=0;" parent="WIyWlLk6GJQsqaUBKTNV-1" source="_qA5Wu07PFHlYsE_viQs-64" target="_qA5Wu07PFHlYsE_viQs-56" edge="1">
          <mxGeometry relative="1" as="geometry">
            <Array as="points">
              <mxPoint x="-210" y="540" />
              <mxPoint x="-210" y="260" />
            </Array>
          </mxGeometry>
        </mxCell>
        <mxCell id="_qA5Wu07PFHlYsE_viQs-63" value="&quot;Let&#39;s find out&quot;" style="edgeLabel;html=1;align=center;verticalAlign=middle;resizable=0;points=[];labelBackgroundColor=#d9e7d5;" parent="_qA5Wu07PFHlYsE_viQs-62" vertex="1" connectable="0">
          <mxGeometry x="-0.3171" y="2" relative="1" as="geometry">
            <mxPoint y="1" as="offset" />
          </mxGeometry>
        </mxCell>
        <mxCell id="_qA5Wu07PFHlYsE_viQs-64" value="Finder Settings" style="shape=process;whiteSpace=wrap;html=1;backgroundOutline=1;" parent="WIyWlLk6GJQsqaUBKTNV-1" vertex="1">
          <mxGeometry x="-405" y="510" width="150" height="60" as="geometry" />
        </mxCell>
        <mxCell id="_qA5Wu07PFHlYsE_viQs-65" style="edgeStyle=orthogonalEdgeStyle;rounded=0;orthogonalLoop=1;jettySize=auto;html=1;entryX=0;entryY=0.5;entryDx=0;entryDy=0;" parent="WIyWlLk6GJQsqaUBKTNV-1" source="_qA5Wu07PFHlYsE_viQs-67" target="_qA5Wu07PFHlYsE_viQs-72" edge="1">
          <mxGeometry relative="1" as="geometry" />
        </mxCell>
        <mxCell id="_qA5Wu07PFHlYsE_viQs-66" value="Leave" style="edgeLabel;html=1;align=center;verticalAlign=middle;resizable=0;points=[];labelBackgroundColor=#d9e7d5;" parent="_qA5Wu07PFHlYsE_viQs-65" vertex="1" connectable="0">
          <mxGeometry x="0.0364" relative="1" as="geometry">
            <mxPoint as="offset" />
          </mxGeometry>
        </mxCell>
        <mxCell id="_qA5Wu07PFHlYsE_viQs-67" value="Private room" style="rounded=1;whiteSpace=wrap;html=1;fillColor=#fff2cc;strokeColor=#d6b656;" parent="WIyWlLk6GJQsqaUBKTNV-1" vertex="1">
          <mxGeometry x="-533" y="610" width="120" height="60" as="geometry" />
        </mxCell>
        <mxCell id="_qA5Wu07PFHlYsE_viQs-68" style="edgeStyle=orthogonalEdgeStyle;rounded=0;orthogonalLoop=1;jettySize=auto;html=1;entryX=1;entryY=0.5;entryDx=0;entryDy=0;" parent="WIyWlLk6GJQsqaUBKTNV-1" source="_qA5Wu07PFHlYsE_viQs-72" target="_qA5Wu07PFHlYsE_viQs-56" edge="1">
          <mxGeometry relative="1" as="geometry">
            <Array as="points">
              <mxPoint x="-80" y="640" />
              <mxPoint x="-80" y="260" />
            </Array>
          </mxGeometry>
        </mxCell>
        <mxCell id="_qA5Wu07PFHlYsE_viQs-69" value="&quot;Find another&quot;" style="edgeLabel;html=1;align=center;verticalAlign=middle;resizable=0;points=[];labelBackgroundColor=#d9e7d5;" parent="_qA5Wu07PFHlYsE_viQs-68" vertex="1" connectable="0">
          <mxGeometry x="0.3564" y="-1" relative="1" as="geometry">
            <mxPoint as="offset" />
          </mxGeometry>
        </mxCell>
        <mxCell id="_qA5Wu07PFHlYsE_viQs-70" style="edgeStyle=orthogonalEdgeStyle;rounded=0;orthogonalLoop=1;jettySize=auto;html=1;entryX=1;entryY=0.5;entryDx=0;entryDy=0;fillColor=#f8cecc;strokeColor=#b85450;" parent="WIyWlLk6GJQsqaUBKTNV-1" source="_qA5Wu07PFHlYsE_viQs-72" target="_qA5Wu07PFHlYsE_viQs-28" edge="1">
          <mxGeometry relative="1" as="geometry">
            <Array as="points">
              <mxPoint x="-80" y="640" />
              <mxPoint x="-80" y="80" />
            </Array>
          </mxGeometry>
        </mxCell>
        <mxCell id="_qA5Wu07PFHlYsE_viQs-71" value="&quot;Just leave&quot;" style="edgeLabel;html=1;align=center;verticalAlign=middle;resizable=0;points=[];labelBackgroundColor=#d9e7d5;fontColor=#ab5a53;" parent="_qA5Wu07PFHlYsE_viQs-70" vertex="1" connectable="0">
          <mxGeometry x="0.6741" y="-1" relative="1" as="geometry">
            <mxPoint as="offset" />
          </mxGeometry>
        </mxCell>
        <mxCell id="_qA5Wu07PFHlYsE_viQs-72" value="Leave Options" style="shape=process;whiteSpace=wrap;html=1;backgroundOutline=1;" parent="WIyWlLk6GJQsqaUBKTNV-1" vertex="1">
          <mxGeometry x="-320" y="610" width="120" height="60" as="geometry" />
        </mxCell>
        <mxCell id="_qA5Wu07PFHlYsE_viQs-81" value="" style="rounded=1;whiteSpace=wrap;html=1;arcSize=4;strokeColor=none;fillColor=#f5f5f5;fontColor=#333333;shadow=1;" parent="WIyWlLk6GJQsqaUBKTNV-1" vertex="1">
          <mxGeometry x="330" y="-440" width="340" height="164" as="geometry" />
        </mxCell>
        <mxCell id="_qA5Wu07PFHlYsE_viQs-82" value="Main Site" style="rounded=1;whiteSpace=wrap;html=1;fillColor=#fff2cc;strokeColor=#d6b656;glass=0;shadow=1;" parent="WIyWlLk6GJQsqaUBKTNV-1" vertex="1">
          <mxGeometry x="363" y="-371" width="125" height="60" as="geometry" />
        </mxCell>
        <mxCell id="_qA5Wu07PFHlYsE_viQs-83" value="Pop-Up" style="shape=process;whiteSpace=wrap;html=1;backgroundOutline=1;glass=0;shadow=1;" parent="WIyWlLk6GJQsqaUBKTNV-1" vertex="1">
          <mxGeometry x="506.5" y="-371" width="125" height="60" as="geometry" />
        </mxCell>
        <mxCell id="_qA5Wu07PFHlYsE_viQs-85" value="Notation" style="text;html=1;align=center;verticalAlign=middle;resizable=0;points=[];autosize=1;strokeColor=none;fillColor=none;fontStyle=1;fontSize=20;" parent="WIyWlLk6GJQsqaUBKTNV-1" vertex="1">
          <mxGeometry x="450" y="-426" width="100" height="40" as="geometry" />
        </mxCell>
        <mxCell id="tHpFWJFd7JvkKhawP5T6-7" value="" style="endArrow=classic;html=1;rounded=0;exitX=1;exitY=0.5;exitDx=0;exitDy=0;entryX=0.5;entryY=0;entryDx=0;entryDy=0;" edge="1" parent="WIyWlLk6GJQsqaUBKTNV-1" source="_qA5Wu07PFHlYsE_viQs-23" target="_qA5Wu07PFHlYsE_viQs-31">
          <mxGeometry width="50" height="50" relative="1" as="geometry">
            <mxPoint x="-30" y="270" as="sourcePoint" />
            <mxPoint x="20" y="220" as="targetPoint" />
            <Array as="points">
              <mxPoint x="405" y="160" />
            </Array>
          </mxGeometry>
        </mxCell>
        <mxCell id="tHpFWJFd7JvkKhawP5T6-8" value="&quot;Join a room&quot;" style="edgeLabel;html=1;align=center;verticalAlign=middle;resizable=0;points=[];labelBackgroundColor=#dfd5e6;" vertex="1" connectable="0" parent="tHpFWJFd7JvkKhawP5T6-7">
          <mxGeometry x="0.3752" relative="1" as="geometry">
            <mxPoint y="-1" as="offset" />
          </mxGeometry>
        </mxCell>
      </root>
    </mxGraphModel>
  </diagram>
</mxfile>
